<svg width="128" height="128" viewBox="0 0 128 128" fill="none" xmlns="http://www.w3.org/2000/svg">
<rect width="128" height="128" rx="26" fill="#273583"/>
<g filter="url(#filter0_d_164_196)">
<path d="M83.6131 108C83.0998 108.22 81.6698 108.513 79.3231 108.88C77.0498 109.32 74.8864 109.54 72.8331 109.54C70.8531 109.54 69.8631 108.99 69.8631 107.89C68.9098 104.003 66.5631 90.1067 62.8231 66.2C52.7031 88.7133 46.6898 102.647 44.7831 108C44.2698 108.22 42.8398 108.513 40.4931 108.88C38.1464 109.32 35.9831 109.54 34.0031 109.54C32.0231 109.54 31.0331 108.99 31.0331 107.89C29.9331 103.27 28.3931 94.36 26.4131 81.16C24.4331 67.96 22.3798 55.97 20.2531 45.19C18.1264 34.41 15.9264 27.26 13.6531 23.74C17.6864 21.8333 20.9864 20.88 23.5531 20.88C26.1931 20.88 28.0998 21.3567 29.2731 22.31C30.4464 23.2633 31.5098 25.3533 32.4631 28.58C33.4898 31.7333 34.4064 36.17 35.2131 41.89C36.0198 47.5367 36.7164 52.89 37.3031 57.95C37.9631 62.9367 38.2931 65.4667 38.2931 65.54C38.2931 65.6133 38.3298 65.98 38.4031 66.64C38.4764 67.2267 39.0264 71.2233 40.0531 78.63C41.1531 85.9633 41.8498 90.6933 42.1431 92.82C47.7898 80.72 53.6198 65.76 59.6331 47.94C57.2864 35.7667 54.9031 27.7 52.4831 23.74C56.5164 21.8333 59.8164 20.88 62.3831 20.88C65.0231 20.88 66.9298 21.3567 68.1031 22.31C69.2764 23.2633 70.3398 25.3533 71.2931 28.58C72.3198 31.7333 73.2364 36.17 74.0431 41.89C74.8498 47.5367 75.5464 52.89 76.1331 57.95C76.7931 62.9367 77.1231 65.4667 77.1231 65.54C77.1231 65.6133 77.1598 65.98 77.2331 66.64C77.3064 67.2267 77.8564 71.2233 78.8831 78.63C79.9831 85.9633 80.6798 90.6933 80.9731 92.82C86.1064 79.4733 91.3131 65.0633 96.5931 49.59C101.873 34.1167 104.66 23.9967 104.953 19.23C112.873 20.8433 116.833 23.41 116.833 26.93C116.833 31.6967 109.28 50.6533 94.1731 83.8C88.3064 96.78 84.7864 104.847 83.6131 108Z" fill="#FA8C43"/>
</g>
<defs>
<filter id="filter0_d_164_196" x="13.6531" y="19.23" width="109.18" height="96.3101" filterUnits="userSpaceOnUse" color-interpolation-filters="sRGB">
<feFlood flood-opacity="0" result="BackgroundImageFix"/>
<feColorMatrix in="SourceAlpha" type="matrix" values="0 0 0 0 0 0 0 0 0 0 0 0 0 0 0 0 0 0 127 0" result="hardAlpha"/>
<feOffset dx="3" dy="3"/>
<feGaussianBlur stdDeviation="1.5"/>
<feComposite in2="hardAlpha" operator="out"/>
<feColorMatrix type="matrix" values="0 0 0 0 0 0 0 0 0 0 0 0 0 0 0 0 0 0 0.9 0"/>
<feBlend mode="normal" in2="BackgroundImageFix" result="effect1_dropShadow_164_196"/>
<feBlend mode="normal" in="SourceGraphic" in2="effect1_dropShadow_164_196" result="shape"/>
</filter>
</defs>
</svg>
